<svg width="55" height="55" viewBox="0 0 55 55" fill="none" xmlns="http://www.w3.org/2000/svg">
<circle cx="27.5" cy="27.5" r="27.5" fill="white"/>
<g clip-path="url(#clip0_198_3)">
<path d="M4.31125 22.3311C4.22837 22.5124 4.32697 22.7025 4.65913 23.3987C5.3028 24.7458 5.42793 25.0706 5.91046 25.8888C5.91046 25.8888 5.94589 25.9493 5.97823 26.0021C7.23051 28.0918 9.23503 30.1307 9.23503 30.1307C10.4478 31.3906 12.283 33.2848 15.1297 34.8863C17.5636 36.2563 19.5973 36.7728 20.7978 37.0694C24.8732 38.0759 28.1145 37.7442 28.9655 37.6443C30.9819 37.4065 33.7285 36.8019 36.7482 35.2615C41.2479 32.9661 43.9912 29.8052 44.601 29.0846C47.1084 26.1215 48.5751 23.0608 49.4172 20.8831C49.2483 20.7724 49.0794 20.6616 48.9106 20.5509C48.1002 20.0829 47.0698 19.5432 45.8464 19.0301C45.3227 18.81 43.8324 18.2051 41.7909 17.7037C41.2045 17.5592 39.0011 17.0378 35.9696 16.8921C32.6438 16.7326 30.1131 17.1118 29.5795 17.1951C27.0959 17.5843 23.0287 18.58 18.2856 21.4876C17.987 21.4739 17.5435 21.454 17.0066 21.424C15.1544 21.323 14.2178 21.2303 13.5167 21.1904C11.7827 21.0905 10.4296 21.2575 9.39691 21.3638C8.25757 21.4815 7.27549 21.6394 6.49457 21.7884C6.18301 21.839 5.73128 21.9135 5.18247 22.007C4.65953 22.0967 4.39638 22.1446 4.31125 22.3311Z" fill="white"/>
<path d="M8.96899 24.2266C9.16253 24.3977 9.4396 24.6431 9.76941 24.9426C11.0728 26.1244 12.2473 27.2483 12.8262 27.8562C14.8769 30.0122 16.5104 32.2339 17.2804 33.319C17.6606 33.5089 18.2126 33.768 18.8957 34.0258C19.1433 34.1201 21.1874 34.8909 21.3192 34.561C21.3328 34.5257 21.3272 34.4753 20.947 33.9391C20.7804 33.705 20.5426 33.3701 20.3933 33.1889C18.2488 30.5834 15.7584 28.6039 15.7584 28.6039C13.267 26.6269 10.8299 25.1952 8.96899 24.2266Z" fill="#22D3EE"/>
<path d="M11.595 23.1636C11.5499 23.2807 12.7416 23.9362 14.2868 25.0057C14.2868 25.0057 16.5738 26.5886 18.7929 28.6476C20.2659 30.0143 22.3104 32.159 24.4509 35.3324C25.6949 35.3104 26.94 35.2883 28.1839 35.2663C28.2837 35.2763 28.3709 35.2674 28.3956 35.212C28.4326 35.1289 28.3075 34.9766 28.2634 34.9224C22.8101 28.2639 15.7706 24.8551 15.7706 24.8551C13.8934 23.9003 11.656 23.0062 11.595 23.1636Z" fill="#22D3EE"/>
<path d="M17.9906 23.6094C18.6605 24.0006 19.3363 24.4209 20.0159 24.8726C24.4903 27.8458 28.0098 31.4265 30.7527 34.9195C31.6653 34.6835 32.579 34.4476 33.4916 34.2103C33.5683 34.1901 33.8036 34.1359 33.805 34.0603C33.8057 34.0213 33.7428 33.9911 33.7322 33.9861C33.4692 33.8527 31.0684 31.0371 26.9447 28.1052C25.399 27.0067 23.8456 25.9145 21.5707 24.897C20.1422 24.2593 18.8985 23.8607 17.9906 23.6094Z" fill="#22D3EE"/>
<path d="M23.8809 23.6491C23.7996 23.8594 26.5087 25.111 29.7362 27.5686C32.4559 29.6398 34.4593 31.743 35.76 33.2458C35.8669 33.2168 36.0355 33.1676 36.2389 33.0957C36.8101 32.894 37.9797 32.479 38.0098 31.9564C38.0163 31.8368 37.9625 31.7235 37.5069 31.3057C36.7946 30.6512 36.3267 30.3782 35.4651 29.7188C35.3845 29.6572 35.2191 29.5339 34.8186 29.223C34.488 28.9663 34.3959 28.8883 34.1964 28.7474C33.6607 28.3674 32.1279 27.3243 29.5085 25.9846C26.9649 24.6813 23.9645 23.4299 23.8809 23.6491Z" fill="#22D3EE"/>
<path d="M46.4455 21.2803C45.7509 21.8196 45.1997 22.2732 44.8482 22.5668C40.666 26.0634 39.2331 28.2805 38.7833 29.011C38.6226 29.2718 38.4994 29.4859 38.4338 29.6006C38.2255 29.5302 37.9047 29.3868 37.5835 29.086C37.3531 28.8708 37.1951 28.6417 37.0919 28.4642C37.2326 28.2941 37.4349 28.0522 37.6809 27.7675C38.2421 27.1174 38.9044 26.3502 39.7337 25.559C40.5959 24.7362 41.312 24.1994 41.676 23.9285C42.6873 23.1774 44.2767 22.1428 46.4455 21.2803Z" fill="#22D3EE"/>
<path d="M34.8481 19.1649C34.8662 19.2316 34.3715 19.4774 33.997 19.6803C32.88 20.2816 31.2472 21.3427 29.0993 23.3486C28.9941 23.3436 28.8482 23.3286 28.6802 23.2846C28.5433 23.2494 27.8684 23.0722 27.811 22.8053C27.6735 22.1631 31.0172 20.5848 31.221 20.489C32.973 19.6683 34.8158 19.0478 34.8481 19.1649Z" fill="#22D3EE"/>
<path d="M44.2749 19.9095C44.3107 20.0102 43.0839 20.6745 42.0343 21.3462C40.3027 22.4553 37.9775 24.2748 35.4644 27.3726C35.3749 27.2707 35.2358 27.1222 35.0516 26.9661C34.495 26.4942 34.2063 26.5283 34.148 26.3659C33.963 25.8523 36.2559 23.7985 40.1364 21.7376C42.1153 20.6851 44.229 19.7798 44.2749 19.9095Z" fill="#22D3EE"/>
<path d="M39.6719 19.5045C39.685 19.5523 39.0242 19.8335 38.8408 19.9331C36.1982 21.3713 34.0493 23.2625 32.3227 25.209C32.2132 25.1435 32.0549 25.0441 31.8704 24.9095C31.4356 24.5911 31.2183 24.4313 31.1865 24.2878C31.1241 23.9994 31.5441 23.4918 33.6582 22.2075C34.8473 21.4853 35.631 21.0076 36.8607 20.4743C38.2443 19.8755 39.6538 19.4365 39.6719 19.5045Z" fill="#22D3EE"/>
<path d="M38.4993 17.0322L38.8381 17.0778L38.4993 17.0322Z" fill="#609741"/>
<path d="M38.7823 17.0703L39.0986 17.1134L38.7823 17.0703Z" fill="#ABB6D8"/>
<path d="M38.614 17.0479L38.8049 17.0743L38.614 17.0479Z" fill="#7DB642"/>
<path d="M38.3567 17.0117L38.6547 17.0524L38.3567 17.0117Z" fill="#7DB642"/>
<path d="M38.1841 16.9883L38.5614 17.04L38.1841 16.9883Z" fill="#609741"/>
<path d="M37.9794 16.959L38.2185 16.991L37.9794 16.959Z" fill="#9ACA3C"/>
<path d="M38.004 16.9629L38.2474 16.9961L38.004 16.9629Z" fill="#7EB642"/>
<path d="M40.3445 17.334L40.6808 17.3955L40.3445 17.334Z" fill="#609741"/>
<path d="M40.6251 17.3857L40.939 17.4422L40.6251 17.3857Z" fill="#ABB6D8"/>
<path d="M40.458 17.3545L40.6476 17.3878L40.458 17.3545Z" fill="#7DB642"/>
<path d="M40.202 17.3076L40.4988 17.3606L40.202 17.3076Z" fill="#7DB642"/>
<path d="M40.0295 17.2783L40.4045 17.3461L40.0295 17.2783Z" fill="#609741"/>
<path d="M39.8271 17.2402L40.065 17.2821L39.8271 17.2402Z" fill="#9ACA3C"/>
<path d="M39.8507 17.2451L40.0928 17.2883L39.8507 17.2451Z" fill="#7EB642"/>
</g>
<defs>
<clipPath id="clip0_198_3">
<rect width="45.8073" height="27.7688" fill="white" transform="matrix(1 -0.00052689 -0.0184617 0.99983 4.5127 10.0244)"/>
</clipPath>
</defs>
</svg>
