<svg width="55" height="55" viewBox="0 0 55 55" fill="none" xmlns="http://www.w3.org/2000/svg">
<circle cx="27.5" cy="27.5" r="27.5" fill="#593B9B"/>
<g clip-path="url(#clip0_147_2)">
<path d="M5.31113 22.3306C5.22825 22.5119 5.32684 22.702 5.65901 23.3982C6.30267 24.7453 6.42781 25.0701 6.91034 25.8883C6.91034 25.8883 6.94577 25.9488 6.97811 26.0016C8.23039 28.0913 10.2349 30.1302 10.2349 30.1302C11.4477 31.3901 13.2829 33.2843 16.1296 34.8858C18.5635 36.2559 20.5972 36.7723 21.7976 37.0689C25.8731 38.0754 29.1144 37.7438 29.9653 37.6438C31.9818 37.406 34.7284 36.8014 37.7481 35.261C42.2478 32.9656 44.991 29.8047 45.6009 29.0841C48.1083 26.121 49.575 23.0603 50.417 20.8826C50.2482 20.7719 50.0793 20.6612 49.9105 20.5504C49.1001 20.0824 48.0696 19.5427 46.8463 19.0296C46.3226 18.8095 44.8323 18.2046 42.7908 17.7033C42.2044 17.5588 40.001 17.0373 36.9694 16.8916C33.6437 16.7322 31.113 17.1113 30.5794 17.1947C28.0958 17.5838 24.0286 18.5795 19.2854 21.4871C18.9869 21.4734 18.5434 21.4535 18.0065 21.4235C16.1543 21.3225 15.2177 21.2298 14.5166 21.1899C12.7826 21.0901 11.4295 21.257 10.3968 21.3633C9.25745 21.481 8.27537 21.6389 7.49444 21.7879C7.18289 21.8385 6.73116 21.913 6.18235 22.0065C5.6594 22.0962 5.39626 22.1442 5.31113 22.3306Z" fill="#593B9B"/>
<path d="M9.96899 24.2261C10.1625 24.3972 10.4396 24.6426 10.7694 24.9422C12.0728 26.1239 13.2473 27.2478 13.8262 27.8557C15.8769 30.0117 17.5104 32.2334 18.2804 33.3185C18.6606 33.5084 19.2126 33.7675 19.8957 34.0253C20.1433 34.1196 22.1874 34.8905 22.3192 34.5605C22.3328 34.5252 22.3272 34.4748 21.947 33.9386C21.7804 33.7045 21.5426 33.3696 21.3933 33.1884C19.2488 30.5829 16.7584 28.6034 16.7584 28.6034C14.267 26.6264 11.8299 25.1947 9.96899 24.2261Z" fill="white"/>
<path d="M12.595 23.1631C12.5499 23.2802 13.7416 23.9357 15.2868 25.0052C15.2868 25.0052 17.5738 26.5881 19.7929 28.6471C21.2659 30.0139 23.3104 32.1585 25.4509 35.332C26.6949 35.3099 27.94 35.2878 29.1839 35.2658C29.2837 35.2758 29.3709 35.2669 29.3956 35.2115C29.4326 35.1284 29.3075 34.9761 29.2634 34.922C23.8101 28.2634 16.7706 24.8546 16.7706 24.8546C14.8934 23.8998 12.656 23.0057 12.595 23.1631Z" fill="white"/>
<path d="M18.9905 23.6089C19.6604 24.0002 20.3362 24.4204 21.0158 24.8721C25.4902 27.8453 29.0097 31.426 31.7526 34.919C32.6652 34.683 33.5788 34.4471 34.4914 34.2098C34.5681 34.1897 34.8034 34.1354 34.8048 34.0598C34.8056 34.0208 34.7427 33.9906 34.7321 33.9856C34.469 33.8522 32.0683 31.0366 27.9446 28.1047C26.3988 27.0062 24.8455 25.914 22.5706 24.8965C21.1421 24.2588 19.8984 23.8603 18.9905 23.6089Z" fill="white"/>
<path d="M24.881 23.6486C24.7998 23.859 27.5088 25.1105 30.7363 27.5681C33.4561 29.6394 35.4594 31.7425 36.7601 33.2453C36.8671 33.2163 37.0356 33.1671 37.239 33.0952C37.8103 32.8935 38.9798 32.4786 39.0099 31.956C39.0164 31.8363 38.9626 31.723 38.5071 31.3052C37.7947 30.6508 37.3268 30.3777 36.4652 29.7184C36.3846 29.6567 36.2192 29.5334 35.8187 29.2226C35.4881 28.9658 35.396 28.8878 35.1965 28.7469C34.6608 28.3669 33.128 27.3238 30.5087 25.9841C27.965 24.6808 24.9646 23.4295 24.881 23.6486Z" fill="white"/>
<path d="M47.4454 21.2798C46.7507 21.8191 46.1996 22.2727 45.8481 22.5663C41.6659 26.0629 40.233 28.28 39.7832 29.0106C39.6225 29.2713 39.4992 29.4854 39.4337 29.6001C39.2254 29.5297 38.9045 29.3863 38.5833 29.0855C38.353 28.8703 38.1949 28.6412 38.0918 28.4637C38.2325 28.2936 38.4348 28.0517 38.6808 27.767C39.242 27.1169 39.9043 26.3497 40.7336 25.5585C41.5958 24.7357 42.3118 24.1989 42.6758 23.928C43.6871 23.177 45.2766 22.1423 47.4454 21.2798Z" fill="white"/>
<path d="M35.8481 19.1639C35.8662 19.2306 35.3715 19.4764 34.997 19.6794C33.88 20.2806 32.2472 21.3418 30.0993 23.3476C29.9941 23.3426 29.8482 23.3276 29.6802 23.2836C29.5433 23.2484 28.8684 23.0712 28.811 22.8043C28.6735 22.1622 32.0172 20.5838 32.221 20.488C33.973 19.6673 35.8158 19.0468 35.8481 19.1639Z" fill="white"/>
<path d="M45.2748 19.9095C45.3106 20.0102 44.0837 20.6745 43.0341 21.3462C41.3025 22.4553 38.9774 24.2748 36.4643 27.3726C36.3748 27.2707 36.2356 27.1222 36.0515 26.9661C35.4949 26.4942 35.2062 26.5283 35.1479 26.3659C34.9629 25.8523 37.2558 23.7985 41.1363 21.7376C43.1151 20.6851 45.2288 19.7798 45.2748 19.9095Z" fill="white"/>
<path d="M40.6719 19.504C40.685 19.5518 40.0242 19.833 39.8408 19.9326C37.1982 21.3708 35.0493 23.262 33.3227 25.2085C33.2132 25.143 33.0549 25.0436 32.8704 24.909C32.4356 24.5906 32.2183 24.4308 32.1865 24.2873C32.1241 23.999 32.5441 23.4913 34.6582 22.207C35.8473 21.4848 36.631 21.0071 37.8607 20.4738C39.2443 19.875 40.6538 19.436 40.6719 19.504Z" fill="white"/>
<path d="M39.4993 17.0312L39.8381 17.0768L39.4993 17.0312Z" fill="#609741"/>
<path d="M39.7822 17.0703L40.0985 17.1134L39.7822 17.0703Z" fill="#ABB6D8"/>
<path d="M39.6138 17.0474L39.8047 17.0738L39.6138 17.0474Z" fill="#7DB642"/>
<path d="M39.3567 17.0112L39.6547 17.0519L39.3567 17.0112Z" fill="#7DB642"/>
<path d="M39.1841 16.9873L39.5614 17.039L39.1841 16.9873Z" fill="#609741"/>
<path d="M38.9792 16.9585L39.2183 16.9905L38.9792 16.9585Z" fill="#9ACA3C"/>
<path d="M39.0039 16.9619L39.2473 16.9952L39.0039 16.9619Z" fill="#7EB642"/>
<path d="M41.3445 17.334L41.6808 17.3955L41.3445 17.334Z" fill="#609741"/>
<path d="M41.6252 17.3853L41.9391 17.4418L41.6252 17.3853Z" fill="#ABB6D8"/>
<path d="M41.458 17.354L41.6476 17.3873L41.458 17.354Z" fill="#7DB642"/>
<path d="M41.2021 17.3076L41.4989 17.3606L41.2021 17.3076Z" fill="#7DB642"/>
<path d="M41.0295 17.2773L41.4045 17.3451L41.0295 17.2773Z" fill="#609741"/>
<path d="M40.8271 17.2397L41.065 17.2817L40.8271 17.2397Z" fill="#9ACA3C"/>
<path d="M40.8506 17.2446L41.0927 17.2878L40.8506 17.2446Z" fill="#7EB642"/>
</g>
<defs>
<clipPath id="clip0_147_2">
<rect width="45.8073" height="27.7688" fill="white" transform="matrix(1 -0.00052689 -0.0184617 0.99983 5.5127 10.0239)"/>
</clipPath>
</defs>
</svg>
