<svg width="205" height="55" viewBox="0 0 205 55" fill="none" xmlns="http://www.w3.org/2000/svg">
<path d="M84.248 30.288C84.248 30.8853 84.104 31.4453 83.816 31.968C83.5387 32.4907 83.096 32.912 82.488 33.232C81.8907 33.552 81.1333 33.712 80.216 33.712H78.344V38H76.104V26.832H80.216C81.08 26.832 81.816 26.9813 82.424 27.28C83.032 27.5787 83.4853 27.9893 83.784 28.512C84.0933 29.0347 84.248 29.6267 84.248 30.288ZM80.12 31.904C80.7387 31.904 81.1973 31.7653 81.496 31.488C81.7947 31.2 81.944 30.8 81.944 30.288C81.944 29.2 81.336 28.656 80.12 28.656H78.344V31.904H80.12ZM94.0784 33.376C94.0784 33.696 94.057 33.984 94.0144 34.24H87.5344C87.5877 34.88 87.8117 35.3813 88.2064 35.744C88.601 36.1067 89.0864 36.288 89.6624 36.288C90.4944 36.288 91.0864 35.9307 91.4384 35.216H93.8544C93.5984 36.0693 93.1077 36.7733 92.3824 37.328C91.657 37.872 90.7664 38.144 89.7104 38.144C88.857 38.144 88.089 37.9573 87.4064 37.584C86.7344 37.2 86.2064 36.6613 85.8224 35.968C85.449 35.2747 85.2624 34.4747 85.2624 33.568C85.2624 32.6507 85.449 31.8453 85.8224 31.152C86.1957 30.4587 86.7184 29.9253 87.3904 29.552C88.0624 29.1787 88.8357 28.992 89.7104 28.992C90.553 28.992 91.305 29.1733 91.9664 29.536C92.6384 29.8987 93.1557 30.416 93.5184 31.088C93.8917 31.7493 94.0784 32.512 94.0784 33.376ZM91.7584 32.736C91.7477 32.16 91.5397 31.7013 91.1344 31.36C90.729 31.008 90.233 30.832 89.6464 30.832C89.0917 30.832 88.6224 31.0027 88.2384 31.344C87.865 31.6747 87.6357 32.1387 87.5504 32.736H91.7584ZM98.3214 30.976V35.264C98.3214 35.5627 98.3907 35.7813 98.5294 35.92C98.6787 36.048 98.924 36.112 99.2654 36.112H100.305V38H98.8974C97.0094 38 96.0654 37.0827 96.0654 35.248V30.976H95.0094V29.136H96.0654V26.944H98.3214V29.136H100.305V30.976H98.3214ZM110.157 33.376C110.157 33.696 110.135 33.984 110.093 34.24H103.613C103.666 34.88 103.89 35.3813 104.285 35.744C104.679 36.1067 105.165 36.288 105.741 36.288C106.573 36.288 107.165 35.9307 107.517 35.216H109.933C109.677 36.0693 109.186 36.7733 108.461 37.328C107.735 37.872 106.845 38.144 105.789 38.144C104.935 38.144 104.167 37.9573 103.485 37.584C102.813 37.2 102.285 36.6613 101.901 35.968C101.527 35.2747 101.34 34.4747 101.34 33.568C101.34 32.6507 101.527 31.8453 101.901 31.152C102.274 30.4587 102.797 29.9253 103.469 29.552C104.141 29.1787 104.914 28.992 105.789 28.992C106.631 28.992 107.383 29.1733 108.045 29.536C108.717 29.8987 109.234 30.416 109.597 31.088C109.97 31.7493 110.157 32.512 110.157 33.376ZM107.837 32.736C107.826 32.16 107.618 31.7013 107.213 31.36C106.807 31.008 106.311 30.832 105.725 30.832C105.17 30.832 104.701 31.0027 104.317 31.344C103.943 31.6747 103.714 32.1387 103.629 32.736H107.837ZM114.032 30.512C114.32 30.0427 114.693 29.6747 115.152 29.408C115.621 29.1413 116.154 29.008 116.752 29.008V31.36H116.16C115.456 31.36 114.922 31.5253 114.56 31.856C114.208 32.1867 114.032 32.7627 114.032 33.584V38H111.792V29.136H114.032V30.512ZM123.172 29.008C124.228 29.008 125.082 29.344 125.732 30.016C126.383 30.6773 126.708 31.6053 126.708 32.8V38H124.468V33.104C124.468 32.4 124.292 31.8613 123.94 31.488C123.588 31.104 123.108 30.912 122.5 30.912C121.882 30.912 121.391 31.104 121.028 31.488C120.676 31.8613 120.5 32.4 120.5 33.104V38H118.26V29.136H120.5V30.24C120.799 29.856 121.178 29.5573 121.636 29.344C122.106 29.12 122.618 29.008 123.172 29.008ZM128.262 33.536C128.262 32.64 128.438 31.8453 128.79 31.152C129.153 30.4587 129.638 29.9253 130.246 29.552C130.865 29.1787 131.553 28.992 132.31 28.992C132.972 28.992 133.548 29.1253 134.038 29.392C134.54 29.6587 134.94 29.9947 135.238 30.4V29.136H137.494V38H135.238V36.704C134.95 37.12 134.55 37.4667 134.038 37.744C133.537 38.0107 132.956 38.144 132.294 38.144C131.548 38.144 130.865 37.952 130.246 37.568C129.638 37.184 129.153 36.6453 128.79 35.952C128.438 35.248 128.262 34.4427 128.262 33.536ZM135.238 33.568C135.238 33.024 135.132 32.56 134.918 32.176C134.705 31.7813 134.417 31.4827 134.054 31.28C133.692 31.0667 133.302 30.96 132.886 30.96C132.47 30.96 132.086 31.0613 131.734 31.264C131.382 31.4667 131.094 31.7653 130.87 32.16C130.657 32.544 130.55 33.0027 130.55 33.536C130.55 34.0693 130.657 34.5387 130.87 34.944C131.094 35.3387 131.382 35.6427 131.734 35.856C132.097 36.0693 132.481 36.176 132.886 36.176C133.302 36.176 133.692 36.0747 134.054 35.872C134.417 35.6587 134.705 35.36 134.918 34.976C135.132 34.5813 135.238 34.112 135.238 33.568ZM144.93 38L141.922 34.224V38H139.682V26.16H141.922V32.896L144.898 29.136H147.81L143.906 33.584L147.842 38H144.93Z" fill="#452090"/>
<path d="M167.766 26.832L164.646 38H162.006L159.91 30.048L157.718 38L155.094 38.016L152.086 26.832H154.486L156.454 35.504L158.726 26.832H161.222L163.366 35.456L165.35 26.832H167.766ZM177.469 33.376C177.469 33.696 177.448 33.984 177.405 34.24H170.925C170.978 34.88 171.202 35.3813 171.597 35.744C171.992 36.1067 172.477 36.288 173.053 36.288C173.885 36.288 174.477 35.9307 174.829 35.216H177.245C176.989 36.0693 176.498 36.7733 175.773 37.328C175.048 37.872 174.157 38.144 173.101 38.144C172.248 38.144 171.48 37.9573 170.797 37.584C170.125 37.2 169.597 36.6613 169.213 35.968C168.84 35.2747 168.653 34.4747 168.653 33.568C168.653 32.6507 168.84 31.8453 169.213 31.152C169.586 30.4587 170.109 29.9253 170.781 29.552C171.453 29.1787 172.226 28.992 173.101 28.992C173.944 28.992 174.696 29.1733 175.357 29.536C176.029 29.8987 176.546 30.416 176.909 31.088C177.282 31.7493 177.469 32.512 177.469 33.376ZM175.149 32.736C175.138 32.16 174.93 31.7013 174.525 31.36C174.12 31.008 173.624 30.832 173.037 30.832C172.482 30.832 172.013 31.0027 171.629 31.344C171.256 31.6747 171.026 32.1387 170.941 32.736H175.149ZM181.344 30.432C181.632 30.0053 182.027 29.6587 182.528 29.392C183.04 29.1253 183.621 28.992 184.272 28.992C185.029 28.992 185.712 29.1787 186.32 29.552C186.939 29.9253 187.424 30.4587 187.776 31.152C188.139 31.8347 188.32 32.6293 188.32 33.536C188.32 34.4427 188.139 35.248 187.776 35.952C187.424 36.6453 186.939 37.184 186.32 37.568C185.712 37.952 185.029 38.144 184.272 38.144C183.611 38.144 183.029 38.016 182.528 37.76C182.037 37.4933 181.643 37.152 181.344 36.736V38H179.104V26.16H181.344V30.432ZM186.032 33.536C186.032 33.0027 185.92 32.544 185.696 32.16C185.483 31.7653 185.195 31.4667 184.832 31.264C184.48 31.0613 184.096 30.96 183.68 30.96C183.275 30.96 182.891 31.0667 182.528 31.28C182.176 31.4827 181.888 31.7813 181.664 32.176C181.451 32.5707 181.344 33.0347 181.344 33.568C181.344 34.1013 181.451 34.5653 181.664 34.96C181.888 35.3547 182.176 35.6587 182.528 35.872C182.891 36.0747 183.275 36.176 183.68 36.176C184.096 36.176 184.48 36.0693 184.832 35.856C185.195 35.6427 185.483 35.3387 185.696 34.944C185.92 34.5493 186.032 34.08 186.032 33.536Z" fill="#EC4899"/>
<line x1="204.5" y1="55" x2="204.5" y2="5" stroke="#452090"/>
<circle cx="27.5" cy="27.5" r="27.5" fill="#452090"/>
<g clip-path="url(#clip0_240_2)">
<path d="M4.31125 22.3311C4.22837 22.5124 4.32697 22.7025 4.65913 23.3987C5.3028 24.7458 5.42793 25.0706 5.91046 25.8888C5.91046 25.8888 5.94589 25.9493 5.97823 26.0021C7.23051 28.0918 9.23503 30.1307 9.23503 30.1307C10.4478 31.3906 12.283 33.2848 15.1297 34.8863C17.5636 36.2563 19.5973 36.7728 20.7978 37.0694C24.8732 38.0759 28.1145 37.7442 28.9655 37.6443C30.9819 37.4065 33.7285 36.8019 36.7482 35.2615C41.2479 32.9661 43.9912 29.8052 44.601 29.0846C47.1084 26.1215 48.5751 23.0608 49.4172 20.8831C49.2483 20.7724 49.0794 20.6616 48.9106 20.5509C48.1002 20.0829 47.0698 19.5432 45.8464 19.0301C45.3227 18.81 43.8324 18.2051 41.7909 17.7037C41.2045 17.5592 39.0011 17.0378 35.9696 16.8921C32.6438 16.7326 30.1131 17.1118 29.5795 17.1951C27.0959 17.5843 23.0287 18.58 18.2856 21.4876C17.987 21.4739 17.5435 21.454 17.0066 21.424C15.1544 21.323 14.2178 21.2303 13.5167 21.1904C11.7827 21.0905 10.4296 21.2575 9.39691 21.3638C8.25757 21.4815 7.27549 21.6394 6.49457 21.7884C6.18301 21.839 5.73128 21.9135 5.18247 22.007C4.65953 22.0967 4.39638 22.1446 4.31125 22.3311Z" fill="#452090"/>
<path d="M8.96899 24.2266C9.16253 24.3977 9.4396 24.6431 9.76941 24.9426C11.0728 26.1244 12.2473 27.2483 12.8262 27.8562C14.8769 30.0122 16.5104 32.2339 17.2804 33.319C17.6606 33.5089 18.2126 33.768 18.8957 34.0258C19.1433 34.1201 21.1874 34.8909 21.3192 34.561C21.3328 34.5257 21.3272 34.4753 20.947 33.9391C20.7804 33.705 20.5426 33.3701 20.3933 33.1889C18.2488 30.5834 15.7584 28.6039 15.7584 28.6039C13.267 26.6269 10.8299 25.1952 8.96899 24.2266Z" fill="white"/>
<path d="M11.595 23.1636C11.5499 23.2807 12.7416 23.9362 14.2868 25.0057C14.2868 25.0057 16.5738 26.5886 18.7929 28.6476C20.2659 30.0143 22.3104 32.159 24.4509 35.3324C25.6949 35.3104 26.94 35.2883 28.1839 35.2663C28.2837 35.2763 28.3709 35.2674 28.3956 35.212C28.4326 35.1289 28.3075 34.9766 28.2634 34.9224C22.8101 28.2639 15.7706 24.8551 15.7706 24.8551C13.8934 23.9003 11.656 23.0062 11.595 23.1636Z" fill="white"/>
<path d="M17.9906 23.6094C18.6605 24.0006 19.3363 24.4209 20.0159 24.8726C24.4903 27.8458 28.0098 31.4265 30.7527 34.9195C31.6653 34.6835 32.579 34.4476 33.4916 34.2103C33.5683 34.1901 33.8036 34.1359 33.805 34.0603C33.8057 34.0213 33.7428 33.9911 33.7322 33.9861C33.4692 33.8527 31.0684 31.0371 26.9447 28.1052C25.399 27.0067 23.8456 25.9145 21.5707 24.897C20.1422 24.2593 18.8985 23.8607 17.9906 23.6094Z" fill="white"/>
<path d="M23.8809 23.6491C23.7996 23.8594 26.5087 25.111 29.7362 27.5686C32.4559 29.6398 34.4593 31.743 35.76 33.2458C35.8669 33.2168 36.0355 33.1676 36.2389 33.0957C36.8101 32.894 37.9797 32.479 38.0098 31.9564C38.0163 31.8368 37.9625 31.7235 37.5069 31.3057C36.7946 30.6512 36.3267 30.3782 35.4651 29.7188C35.3845 29.6572 35.2191 29.5339 34.8186 29.223C34.488 28.9663 34.3959 28.8883 34.1964 28.7474C33.6607 28.3674 32.1279 27.3243 29.5085 25.9846C26.9649 24.6813 23.9645 23.4299 23.8809 23.6491Z" fill="white"/>
<path d="M46.4455 21.2803C45.7509 21.8196 45.1997 22.2732 44.8482 22.5668C40.666 26.0634 39.2331 28.2805 38.7833 29.011C38.6226 29.2718 38.4994 29.4859 38.4338 29.6006C38.2255 29.5302 37.9047 29.3868 37.5835 29.086C37.3531 28.8708 37.1951 28.6417 37.0919 28.4642C37.2326 28.2941 37.4349 28.0522 37.6809 27.7675C38.2421 27.1174 38.9044 26.3502 39.7337 25.559C40.5959 24.7362 41.312 24.1994 41.676 23.9285C42.6873 23.1774 44.2767 22.1428 46.4455 21.2803Z" fill="white"/>
<path d="M34.8481 19.1644C34.8662 19.2311 34.3715 19.4769 33.997 19.6799C32.88 20.2811 31.2472 21.3422 29.0993 23.3481C28.9941 23.3431 28.8482 23.3281 28.6802 23.2841C28.5433 23.2489 27.8684 23.0717 27.811 22.8048C27.6735 22.1626 31.0172 20.5843 31.221 20.4885C32.973 19.6678 34.8158 19.0473 34.8481 19.1644Z" fill="white"/>
<path d="M44.2749 19.91C44.3107 20.0107 43.0839 20.675 42.0343 21.3467C40.3027 22.4557 37.9775 24.2753 35.4644 27.3731C35.3749 27.2712 35.2358 27.1227 35.0516 26.9666C34.495 26.4947 34.2063 26.5288 34.148 26.3664C33.963 25.8528 36.2559 23.799 40.1364 21.7381C42.1153 20.6856 44.229 19.7803 44.2749 19.91Z" fill="white"/>
<path d="M39.6719 19.5045C39.685 19.5523 39.0242 19.8335 38.8408 19.9331C36.1982 21.3713 34.0493 23.2625 32.3227 25.209C32.2132 25.1435 32.0549 25.0441 31.8704 24.9095C31.4356 24.5911 31.2183 24.4313 31.1865 24.2878C31.1241 23.9994 31.5441 23.4918 33.6582 22.2075C34.8473 21.4853 35.631 21.0076 36.8607 20.4743C38.2443 19.8755 39.6538 19.4365 39.6719 19.5045Z" fill="white"/>
<path d="M38.4993 17.0317L38.8381 17.0773L38.4993 17.0317Z" fill="#609741"/>
<path d="M38.7823 17.0708L39.0986 17.1139L38.7823 17.0708Z" fill="#ABB6D8"/>
<path d="M38.614 17.0479L38.8049 17.0743L38.614 17.0479Z" fill="#7DB642"/>
<path d="M38.3567 17.0117L38.6547 17.0524L38.3567 17.0117Z" fill="#7DB642"/>
<path d="M38.1841 16.9878L38.5614 17.0395L38.1841 16.9878Z" fill="#609741"/>
<path d="M37.9794 16.959L38.2185 16.991L37.9794 16.959Z" fill="#9ACA3C"/>
<path d="M38.004 16.9624L38.2474 16.9957L38.004 16.9624Z" fill="#7EB642"/>
<path d="M40.3445 17.3345L40.6808 17.396L40.3445 17.3345Z" fill="#609741"/>
<path d="M40.6251 17.3857L40.939 17.4422L40.6251 17.3857Z" fill="#ABB6D8"/>
<path d="M40.458 17.3545L40.6476 17.3878L40.458 17.3545Z" fill="#7DB642"/>
<path d="M40.202 17.3081L40.4988 17.3611L40.202 17.3081Z" fill="#7DB642"/>
<path d="M40.0295 17.2778L40.4045 17.3456L40.0295 17.2778Z" fill="#609741"/>
<path d="M39.8271 17.2402L40.065 17.2821L39.8271 17.2402Z" fill="#9ACA3C"/>
<path d="M39.8507 17.2451L40.0928 17.2883L39.8507 17.2451Z" fill="#7EB642"/>
</g>
<defs>
<clipPath id="clip0_240_2">
<rect width="45.8073" height="27.7688" fill="white" transform="matrix(1 -0.00052689 -0.0184617 0.99983 4.5127 10.0244)"/>
</clipPath>
</defs>
</svg>
